# AST/ASF file generated using VICON BodyLanguage
# -----------------------------------------------
:version 1.10
:name VICON
:units
  mass 1.0
  length 0.45
  angle deg
:documentation
   .ast/.asf automatically generated from VICON data using
   VICON BodyBuilder and BodyLanguage model FoxedUp or BRILLIANT.MOD
:root
   order TX TY TZ RX RY RZ
   axis XYZ
   position 0 0 0  
   orientation 0 0 0 
:bonedata
  begin
     id 1 
     name lhipjoint
     direction 0.623415 -0.642378 0.445763 
     length 2.49859 
     axis 0 0 0  XYZ
  end
  begin
     id 2 
     name lfemur
     direction 0.34202 -0.939693 0  
     length 6.69689  
     axis 0 0 20  XYZ
    dof rx ry rz
    limits (-160.0 20.0)
           (-70.0 70.0)
           (-60.0 70.0)
  end
  begin
     id 3 
     name ltibia
     direction 0.34202 -0.939693 0   
     length 7.37574   
     axis 0 0 20   XYZ
    dof rx
    limits (-10.0 170.0)
  end
  begin
     id 4 
     name lfoot
     direction 0.084323 -0.231675 0.969132   
     length 2.09111   
     axis -90 7.62852e-016 20   XYZ
    dof rx rz
    limits (-45.0 90.0)
           (-70.0 20.0)
  end
  begin
     id 5 
     name ltoes
     direction 1.5357e-011 -4.21957e-011 1   
     length 1.04989   
     axis -90 7.62852e-016 20   XYZ
    dof rx
    limits (-90.0 20.0)
  end
  begin
     id 6 
     name rhipjoint
     direction -0.605402 -0.653903 0.45376   
     length 2.45455  
     axis 0 0 0  XYZ 
  end
  begin
     id 7 
     name rfemur
     direction -0.34202 -0.939693 0   
     length 6.64523   
     axis 0 0 -20   XYZ
    dof rx ry rz
    limits (-160.0 20.0)
           (-70.0 70.0)
           (-70.0 60.0)
  end
  begin
     id 8 
     name rtibia
     direction -0.34202 -0.939693 0   
     length 7.3339   
     axis 0 0 -20   XYZ
    dof rx
    limits (-10.0 170.0)
 end
 begin
     id 9 
     name rfoot
     direction -0.120854 -0.332043 0.93549   
     length 2.23135  
     axis -90 -7.62852e-016 -20   XYZ
    dof rx rz
    limits (-45.0 90.0)
           (-20.0 70.0)
  end
  begin
     id 10 
     name rtoes
     direction -1.53563e-011 -4.21914e-011 1   
     length 1.10614   
     axis -90 -7.62852e-016 -20   XYZ
    dof rx
    limits (-90.0 20.0)
  end
  begin
     id 11 
     name lowerback
     direction 0.0319682 0.998615 -0.0417941   
     length 2.02718   
     axis 0 0 0   XYZ
    dof rx ry rz
    limits (-20.0 45.0)
           (-30.0 30.0)
           (-30.0 30.0)
  end
  begin
     id 12 
     name upperback
     direction 7.63181e-005 0.995808 0.0914691   
     length 1.97539   
     axis 0 0 0   XYZ
    dof rx ry rz
    limits (-20.0 45.0)
           (-30.0 30.0)
           (-30.0 30.0)
  end
  begin
     id 13 
     name thorax
     direction -0.016423 0.993627 0.111514   
     length 2.00349   
     axis 0 0 0   XYZ
    dof rx ry rz
    limits (-20.0 45.0)
           (-30.0 30.0)
           (-30.0 30.0)
  end
  begin
     id 14 
     name lowerneck
     direction -0.174763 0.981668 -0.0760716   
     length 1.71436   
     axis 0 0 0   XYZ
    dof rx ry rz
    limits (-20.0 45.0)
           (-30.0 30.0)
           (-30.0 30.0)
  end
  begin
     id 15 
     name upperneck
     direction 0.345458 0.934587 -0.0848868   
     length 1.72805   
     axis 0 0 0   XYZ
    dof rx ry rz
    limits (-20.0 45.0)
           (-30.0 30.0)
           (-30.0 30.0)
  end
  begin
     id 16
     name head
     direction 0.13001 0.989848 -0.0574291  
     length 1.767  
     axis 0 0 0   XYZ
    dof rx ry rz
    limits (-20.0 45.0)
           (-30.0 30.0)
           (-30.0 30.0)
  end
  begin
     id 17 
     name lclavicle
     direction 0.952951 0.290122 0.0878234  
     length 3.54654  
     axis 0 0 0   XYZ
    dof ry rz
    limits (-20.0 10.0)
           (0.0 20.0)
  end
  begin
     id 18 
     name lhumerus
     direction 1 -4.48957e-011 -4.56525e-028   
     length 5.19807   
     axis 180 -30 -90   XYZ
    dof rx ry rz
    limits (-60.0 90.0)
           (-90.0 90.0)
           (-90.0 90.0)
  end
  begin
     id 19
     name lradius
     direction 1 -4.48979e-011 -2.0317e-027   
     length 3.0937   
     axis 180 -30 -90   XYZ
    dof rx
    limits (-10.0 170.0)
  end
  begin
     id 20
     name lwrist
     direction 1 -4.48953e-011 -3.05809e-027   
     length 1.54685   
     axis 8.48514e-016 90 90   XYZ
    dof ry
    limits (-180.0 0.0)
 end
  begin
     id 21 
     name lhand
     direction 1 -4.48952e-011 -6.11639e-027   
     length 0.672632   
     axis 3.9013e-015 90 90   XYZ
    dof rx rz
    limits (-90.0 90.0)
           (-45.0 45.0)
  end
  begin
     id 22 
     name lfingers
     direction 1 -4.48925e-011 -1.22426e-026   
     length 0.542293   
     axis 7.80276e-015 90 90   XYZ
    dof rx
    limits (0.0 90.0)
  end
  begin
     id 23
     name lthumb
     direction 0.707107 -6.3486e-011 0.707107   
     length 0.778628   
     axis -90 45 5.37419e-014   XYZ
    dof rx rz
    limits (-45.0 45.0)
           (-45.0 45.0)
  end
  begin
     id 24 
     name rclavicle
     direction -0.960732 0.273675 -0.0457849   
     length 3.52079  
     axis 0 0 0   XYZ 
    dof ry rz
    limits (-10.0 20.0)
           (-20.0 0.0)
  end
  begin
     id 25 
     name rhumerus
     direction -1 -4.48976e-011 -1.63613e-027  
     length 5.45222   
     axis 180 30 90   XYZ
    dof rx ry rz
    limits (-90.0 60.0)
           (-90.0 90.0)
           (-90.0 90.0)
  end
  begin
     id 26 
     name rradius
     direction -1 -4.48957e-011 -7.00033e-028   
     length 3.01284   
     axis 180 30 90   XYZ
    dof rx
    limits (-10.0 170.0)
  end
  begin
     id 27 
     name rwrist
     direction -1 -4.48983e-011 -3.05543e-027   
     length 1.50642   
     axis 8.48514e-016 -90 -90   XYZ
    dof ry
    limits (-180.0 0.0)
  end
  begin
     id 28
     name rhand
     direction -1 -4.48984e-011 -6.11072e-027   
     length 0.622296   
     axis 3.9013e-015 -90 -90   XYZ
    dof rx rz
    limits (-90.0 90.0)
           (-45.0 45.0)
  end
  begin
     id 29
     name rfingers
     direction -1 -4.48865e-011 -1.22637e-026   
     length 0.501711   
     axis 7.80276e-015 -90 -90   XYZ
    dof rx
    limits (0.0 90.0)
  end
  begin
     id 30
     name rthumb
     direction -0.707107 -6.34932e-011 0.707107   
     length 0.72036   
     axis -90 -45 -5.37419e-014   XYZ
    dof rx rz
    limits (-45.0 45.0)
           (-45.0 45.0)
  end
:hierarchy
  begin
    root lhipjoint rhipjoint lowerback
    lhipjoint lfemur
    lfemur ltibia
    ltibia lfoot
    lfoot ltoes
    rhipjoint rfemur
    rfemur rtibia
    rtibia rfoot
    rfoot rtoes
    lowerback upperback
    upperback thorax
    thorax lowerneck lclavicle rclavicle
    lowerneck upperneck
    upperneck head
    lclavicle lhumerus
    lhumerus lradius
    lradius lwrist
    lwrist lhand lthumb
    lhand lfingers
    rclavicle rhumerus
    rhumerus rradius
    rradius rwrist
    rwrist rhand rthumb
    rhand rfingers
  end

#!OML:ASF H:\Not Pregnant\Project 1\Capture day 1\Session 1\non-pregnant.ASF
:FULLY-SPECIFIED
:DEGREES
250
root -8.16718 16.0497 18.6909 -179.735 69.9139 -196.678
lowerback 2.58149 1.90812 -8.64109
upperback -6.793 2.01748 -3.43996
thorax -8.85088 1.56604 0.934361
lowerneck 24.1535 -12.0352 -31.5246
upperneck -1.75886 -23.4573 41.6154
head 5.57562 -14.1276 21.438
rclavicle 6.03808e-015 -2.70347e-014
rhumerus -29.2999 8.79788 -95.6241
rradius 45.8268
rwrist 11.1951
rhand -8.83191 3.58635
rfingers 7.12502
rthumb 17.1082 -25.6804
lclavicle 6.03808e-015 -2.70347e-014
lhumerus -45.3981 -14.0058 75.9687
lradius 34.3439
lwrist 42.8968
lhand -24.0463 -10.7863
lfingers 7.12502
lthumb 2.43263 19.1796
rfemur -46.0146 -8.59106 27.6519
rtibia 49.0983
rfoot -20.9973 7.51997
rtoes -14.2982
lfemur -25.6194 21.6271 -30.4186
ltibia 31.5876
lfoot -23.0473 1.71419
ltoes -14.0203
251
root -8.14076 16.058 18.6393 -180.43 70.9041 -197.385
lowerback 2.61331 1.8825 -8.72655
upperback -6.77372 1.97252 -3.3602
thorax -8.85257 1.54941 1.07098
lowerneck 24.089 -11.9497 -31.6959
upperneck -1.72765 -23.4106 41.6646
head 5.61788 -14.1149 21.531
rclavicle -2.63638e-014 2.3059e-014
rhumerus -29.3369 8.66473 -95.5768
rradius 45.3104
rwrist 11.3106
rhand -8.70782 3.42103
rfingers 7.12502
rthumb 17.2277 -25.8353
lclavicle -2.63638e-014 2.3059e-014
lhumerus -45.315 -13.3517 75.7678
lradius 34.1947
lwrist 42.8759
lhand -24.035 -10.7617
lfingers 7.12502
lthumb 2.44355 19.204
rfemur -46.4733 -8.93641 28.1701
rtibia 48.1453
rfoot -20.6709 7.25365
rtoes -14.5079
lfemur -25.192 21.7824 -30.5964
ltibia 31.1974
lfoot -22.7913 2.43285
ltoes -13.4577
252
root -8.11273 16.0663 18.588 -181.075 71.8655 -198.02
lowerback 2.65411 1.85564 -8.75538
upperback -6.74749 1.92863 -3.27647
thorax -8.84871 1.52892 1.18081
lowerneck 24.0163 -11.8638 -31.8513
upperneck -1.69135 -23.3549 41.6981
head 5.65205 -14.0949 21.6108
rclavicle 4.87519e-014 1.51076e-014
rhumerus -29.3727 8.46642 -95.5065
rradius 44.739
rwrist 11.4698
rhand -8.68126 3.17034
rfingers 7.12502
rthumb 17.2532 -26.0838
lclavicle 4.87519e-014 1.51076e-014
lhumerus -45.2061 -12.7078 75.5825
lradius 34.0199
lwrist 42.8264
lhand -24.0095 -10.7142
lfingers 7.12502
lthumb 2.46823 19.2513
rfemur -46.8984 -9.28072 28.726
rtibia 47.2086
rfoot -20.2808 6.91637
rtoes -14.7291
lfemur -24.7451 21.8798 -30.7189
ltibia 30.8094
lfoot -22.5414 3.22671
ltoes -13.0013
253
root -8.08289 16.0745 18.5364 -181.673 72.7781 -198.591
lowerback 2.69854 1.82387 -8.72346
upperback -6.71515 1.88166 -3.20021
thorax -8.8361 1.50203 1.24999
lowerneck 23.9348 -11.791 -31.9473
upperneck -1.65599 -23.2913 41.7018
head 5.66534 -14.0648 21.6533
rclavicle 3.81418e-014 0
rhumerus -29.4095 8.1875 -95.419
rradius 44.1181
rwrist 11.6657
rhand -8.76827 2.8194
rfingers 7.12502
rthumb 17.1695 -26.442
lclavicle 3.81418e-014 0
lhumerus -45.0755 -12.1233 75.4285
lradius 33.8281
lwrist 42.7822
lhand -23.98 -10.6548
lfingers 7.12502
lthumb 2.49664 19.3104
rfemur -47.2982 -9.66057 29.3186
rtibia 46.2844
rfoot -19.8345 6.57288
rtoes -14.9691
lfemur -24.2816 21.9026 -30.7995
ltibia 30.4252
lfoot -22.3058 4.09456
ltoes -12.696
254
root -8.05105 16.0828 18.4847 -182.18 73.6396 -199.049
lowerback 2.75154 1.78664 -8.6572
upperback -6.67647 1.8297 -3.09921
thorax -8.82002 1.47058 1.32725
lowerneck 23.844 -11.7248 -32.0119
upperneck -1.62546 -23.2191 41.6625
head 5.65784 -14.0244 21.6547
rclavicle -2.9122e-014 1.82882e-014
rhumerus -29.4541 7.85835 -95.277
rradius 43.453
rwrist 11.8835
rhand -8.97228 2.38305
rfingers 7.12502
rthumb 16.9731 -26.8954
lclavicle -2.9122e-014 1.82882e-014
lhumerus -44.9349 -11.5694 75.3458
lradius 33.6221
lwrist 42.7439
lhand -23.9649 -10.5919
lfingers 7.12502
lthumb 2.51129 19.3731
rfemur -47.6635 -10.0699 29.9482
rtibia 45.3685
rfoot -19.336 6.2899
rtoes -15.1416
lfemur -23.7917 21.8424 -30.8236
ltibia 30.0425
lfoot -22.0854 5.03436
ltoes -12.5355
255
root -8.01697 16.091 18.4331 -182.653 74.4459 -199.456
lowerback 2.81171 1.74045 -8.58126
upperback -6.63276 1.76668 -2.97926
thorax -8.80163 1.43336 1.42059
lowerneck 23.7428 -11.6593 -32.0558
upperneck -1.5911 -23.1353 41.5841
head 5.63411 -13.9727 21.6226
rclavicle 4.68635e-014 -2.38542e-014
rhumerus -29.5114 7.48557 -95.0792
rradius 42.7511
rwrist 12.1164
rhand -9.24473 1.89847
rfingers 7.12502
rthumb 16.7108 -27.4023
lclavicle 4.68635e-014 -2.38542e-014
lhumerus -44.7863 -11.0506 75.3256
lradius 33.4137
lwrist 42.6895
lhand -23.9267 -10.4576
lfingers 7.12502
lthumb 2.54815 19.5069
rfemur -47.9964 -10.4973 30.5789
rtibia 44.46
rfoot -18.7863 6.11067
rtoes -15.1759
lfemur -23.2706 21.6937 -30.8146
ltibia 29.6571
lfoot -21.8783 6.03096
ltoes -12.4808
256
root -7.98075 16.0989 18.3816 -183.117 75.1961 -199.843
lowerback 2.87527 1.68122 -8.5054
upperback -6.58549 1.68695 -2.84298
thorax -8.78014 1.38834 1.53323
lowerneck 23.6281 -11.5907 -32.0907
upperneck -1.54563 -23.0396 41.469
head 5.59971 -13.9097 21.5628
rclavicle -1.41883e-014 7.15625e-015
rhumerus -29.5783 7.07031 -94.8225
rradius 42.0167
rwrist 12.3639
rhand -9.52092 1.42595
rfingers 7.12502
rthumb 16.445 -27.897
lclavicle -1.41883e-014 7.15625e-015
lhumerus -44.6341 -10.5566 75.3715
lradius 33.2006
lwrist 42.619
lhand -23.8879 -10.3124
lfingers 7.12502
lthumb 2.58565 19.6517
rfemur -48.3045 -10.9256 31.1857
rtibia 43.5618
rfoot -18.2074 6.04622
rtoes -15.1514
lfemur -22.7207 21.4547 -30.7874
ltibia 29.2622
lfoot -21.6784 7.07484
ltoes -12.4781
257
root -7.9426 16.1064 18.3298 -183.484 75.8788 -200.124
lowerback 2.93846 1.60843 -8.38647
upperback -6.53453 1.59273 -2.70234
thorax -8.75076 1.33321 1.62862
lowerneck 23.5099 -11.5229 -32.1106
upperneck -1.49281 -22.9381 41.3325
head 5.55773 -13.8408 21.485
rclavicle 1.57288e-014 -1.94809e-014
rhumerus -29.6508 6.58525 -94.5127
rradius 41.2572
rwrist 12.6371
rhand -9.78055 0.978145
rfingers 7.12502
rthumb 16.195 -28.3654
lclavicle 1.57288e-014 -1.94809e-014
lhumerus -44.4506 -10.0504 75.4386
lradius 32.9662
lwrist 42.4641
lhand -23.8284 -10.1523
lfingers 7.12502
lthumb 2.64306 19.8111
rfemur -48.5923 -11.3526 31.7773
rtibia 42.6708
rfoot -17.6118 6.08782
rtoes -15.1186
lfemur -22.147 21.0942 -30.7246
ltibia 28.8608
lfoot -21.4748 8.1614
ltoes -12.4615
258
root -7.90251 16.1129 18.2776 -183.869 76.4715 -200.429
lowerback 2.99695 1.51243 -8.25923
upperback -6.48471 1.46899 -2.56726
thorax -8.71631 1.26315 1.71682
lowerneck 23.3883 -11.4518 -32.1365
upperneck -1.42202 -22.8348 41.181
head 5.51879 -13.7694 21.4
rclavicle 2.37051e-014 3.02153e-014
rhumerus -29.7309 6.01555 -94.1433
rradius 40.4706
rwrist 12.9808
rhand -9.9309 0.631042
rfingers 7.12502
rthumb 16.0502 -28.7242
lclavicle 2.37051e-014 3.02153e-014
lhumerus -44.2422 -9.53342 75.5255
lradius 32.7198
lwrist 42.227
lhand -23.7578 -9.98713
lfingers 7.12502
lthumb 2.71125 19.9754
rfemur -48.8752 -11.7691 32.2941
rtibia 41.7897
rfoot -17.0031 6.21564
rtoes -15.1738
lfemur -21.5626 20.607 -30.6754
ltibia 28.456
lfoot -21.2692 9.26518
ltoes -12.387
259
root -7.86062 16.1187 18.2247 -184.107 76.9741 -200.589
lowerback 3.0458 1.39501 -8.064
upperback -6.43406 1.32243 -2.44213
thorax -8.66967 1.17693 1.75968
lowerneck 23.2681 -11.3805 -32.1598
upperneck -1.33463 -22.7327 41.0274
head 5.48467 -13.6981 21.3149
rclavicle 1.88348e-014 -2.26615e-014
rhumerus -29.8139 5.33577 -93.7194
rradius 39.6595
rwrist 13.4202
rhand -9.98049 0.380823
rfingers 7.12502
rthumb 16.0024 -28.9782
lclavicle 1.88348e-014 -2.26615e-014
lhumerus -43.9996 -9.01873 75.6287
lradius 32.4599
lwrist 41.9209
lhand -23.6773 -9.85019
lfingers 7.12502
lthumb 2.78903 20.1113
rfemur -49.1452 -12.1616 32.7625
rtibia 40.9119
rfoot -16.3918 6.4033
rtoes -15.4277
lfemur -20.9796 20.0141 -30.6058
ltibia 28.0596
lfoot -21.066 10.3754
ltoes -12.2858
260
root -7.81678 16.1236 18.1715 -184.213 77.4054 -200.621
lowerback 3.08031 1.2627 -7.81563
upperback -6.38303 1.16113 -2.32946
thorax -8.61069 1.07951 1.76164
lowerneck 23.2701 -11.3193 -31.9629
upperneck -1.4862 -22.5685 41.2532
head 5.336 -13.5893 20.7977
rclavicle 1.52816e-014 1.78906e-014
rhumerus -29.9023 4.54707 -93.2475
rradius 38.834
rwrist 13.9214
rhand -9.95152 0.209969
rfingers 7.12502
rthumb 16.0303 -29.1469
lclavicle 1.52816e-014 1.78906e-014
lhumerus -43.7282 -8.55706 75.7577
lradius 32.2112
lwrist 41.6027
lhand -23.5783 -9.72636
lfingers 7.12502
lthumb 2.88461 20.2339
rfemur -49.3964 -12.4837 33.1528
rtibia 40.0394
rfoot -15.7738 6.64444
rtoes -15.7814
lfemur -20.4086 19.3776 -30.5259
ltibia 27.676
lfoot -20.8739 11.454
ltoes -12.1544
261
root -7.7708 16.1276 18.1182 -184.137 77.7625 -200.478
lowerback 3.09644 1.11807 -7.49966
upperback -6.33202 0.989484 -2.23652
thorax -8.53796 0.971933 1.70634
lowerneck 23.1576 -11.2562 -31.9722
upperneck -1.36392 -22.4815 41.1053
head 5.31983 -13.5263 20.7246
rclavicle -8.84592e-015 6.75868e-015
rhumerus -30.0055 3.65872 -92.744
rradius 38.011
rwrist 14.4217
rhand -9.94559 0.0290218
rfingers 7.12502
rthumb 16.036 -29.3273
lclavicle -8.84592e-015 6.75868e-015
lhumerus -43.427 -8.17573 75.9084
lradius 31.9901
lwrist 41.2734
lhand -23.4476 -9.58533
lfingers 7.12502
lthumb 3.01086 20.3732
rfemur -49.625 -12.7403 33.4705
rtibia 39.1666
rfoot -15.1679 6.92837
rtoes -16.2261
lfemur -19.8611 18.7494 -30.4315
ltibia 27.3174
lfoot -20.7047 12.45
ltoes -12.0142
262
root -7.72214 16.1304 18.0659 -183.957 78.0735 -200.238
lowerback 3.09253 0.969521 -7.17118
upperback -6.28259 0.815528 -2.1493
thorax -8.45609 0.862461 1.63794
lowerneck 23.0467 -11.1992 -31.9762
upperneck -1.22635 -22.4041 40.9564
head 5.31155 -13.4676 20.6486
rclavicle 1.07095e-014 -8.34896e-015
rhumerus -30.1326 2.69461 -92.1975
rradius 37.199
rwrist 14.8911
rhand -9.99636 -0.183703
rfingers 7.12502
rthumb 15.9872 -29.544
lclavicle 1.07095e-014 -8.34896e-015
lhumerus -43.1278 -7.92337 76.13
lradius 31.8386
lwrist 41.0061
lhand -23.2946 -9.42779
lfingers 7.12502
lthumb 3.15857 20.5286
rfemur -49.8254 -12.9144 33.7024
rtibia 38.2978
rfoot -14.6028 7.26571
rtoes -16.7332
lfemur -19.3342 18.2013 -30.3352
ltibia 26.9783
lfoot -20.5655 13.3203
ltoes -11.8951
